<?xml version="1.0" standalone="no"?>
<!DOCTYPE svg PUBLIC "-//W3C//DTD SVG 20010904//EN"
 "http://www.w3.org/TR/2001/REC-SVG-20010904/DTD/svg10.dtd">
<svg version="1.0" xmlns="http://www.w3.org/2000/svg"
 width="500.000000pt" height="500.000000pt" viewBox="0 0 500.000000 500.000000"
 preserveAspectRatio="xMidYMid meet">
<metadata>
Created by potrace 1.14, written by Peter Selinger 2001-2017
</metadata>
<g transform="translate(0.000000,500.000000) scale(0.100000,-0.100000)"
fill="#000000" stroke="none">
<path d="M0 2500 l0 -2500 2500 0 2500 0 0 2500 0 2500 -2500 0 -2500 0 0
-2500z m1088 643 l2 -453 370 0 370 0 2 453 3 452 265 0 265 0 3 -1132 2
-1133 -270 0 -270 0 0 455 0 455 -370 0 -370 0 0 -455 0 -455 -250 0 -250 0 0
1135 0 1135 248 -2 247 -3 3 -452z m3322 227 l0 -230 -405 0 -405 0 0 -225 0
-225 390 0 390 0 0 -225 0 -225 -390 0 -390 0 0 -230 0 -230 405 0 405 0 0
-225 0 -225 -655 0 -655 0 0 1135 0 1135 655 0 655 0 0 -230z"/>
</g>
</svg>
